<?xml version="1.0" encoding="UTF-8"?><svg id="b" xmlns="http://www.w3.org/2000/svg" viewBox="0 0 199.9015 199.9015"><g id="c"><circle cx="99.951" cy="99.9508" r="67.1876" fill="#1a3168" stroke-width="0"/><path d="M124.1694,11.4072c.1706-.3498.4084-.3923.7115-.1281.4045.3518.5649.807.4835,1.362-.1116.7745-.4509,1.4738-1.0182,2.0937-.2216.2441-.4736.3884-.7562.4329-.1931.0306-.4553-.0304-.7827-.1868-.6179-.2909-1.1707-.4635-1.6566-.5165-.3132-.0346-.6139-.1137-.9005-.2418-.4777-.2095-.6565-.4635-.5366-.7583.0833-.2072.2662-.3597.5488-.4552.2559-.0876.5629-.1446.9207-.1667.7826-.051,1.6282-.2786,2.537-.6831.0671-.0284.1179-.0752.1443-.1302l.305-.6219Z" fill="#1a3168" fill-rule="evenodd" stroke-width="0"/><path d="M80.2227,14.3567c.0244-.1097.1199-.1891.2339-.195.9819-.0448,1.9718-.0998,2.9659-.1667.2194-.0142.5487-.0876.9859-.2197.4816-.1443.9816-.1707,1.4961-.0771.0629.0122.1199.0487.1584.1035.4352.6324.6118,1.303.5307,2.0145-.0468.4207-.2583.8986-.6344,1.4312-.2662.3759-.5386.7478-.8212,1.1118-.2135.2744-.4655.6588-.7563,1.1568-.559.9513-1.2949,1.7521-2.2073,2.4027-.055.0385-.1242.0507-.1789.0283-.2684-.0975-.4025-.3027-.4005-.6179.002-.4717.1159-.9128.3393-1.3252.3112-.5755.4858-.9049.5204-.9839.2075-.4717.4493-.925.7277-1.3578.0022-.0063.1159-.1525.3376-.4414.2378-.309.3231-.6279.2582-.9595-.0388-.195-.246-.3047-.4289-.2254-1.0715.4612-1.9902.3983-2.7586-.1933-.2316-.1769-.368-.3983-.4085-.6605-.0428-.2622-.0287-.5388.0405-.8254Z" fill="#1b3063" fill-rule="evenodd" stroke-width="0"/><path d="M117.9408,22.813c-.0873-.1199-.2701-.1097-.5488.0306-.1891.0935-.3617.2092-.5204.3475-.7603.6628-1.5937.9596-2.5002.8904-.0652-.004-.1242-.0366-.1647-.0873-.3435-.4391-.4289-.9391-.2562-1.4984.0345-.1117.1179-.201.2256-.2438,1.366-.5448,2.5452-1.2889,3.5351-2.232.0915-.0873.1443-.1789.1545-.2724.0244-.2174-.1199-.2622-.4309-.1341-.4045.1667-.7563.1687-1.055.004-.057-.0323-.0976-.0893-.1058-.1565-.0751-.502.1058-.8801.5409-1.1364.5468-.3231,1.1381-.4776,1.7764-.4674.2866.0039.5752-.0082.864-.0346.1565-.0142.3802-.1809.673-.4961.1624-.1746.2316-.3801.2092-.6179-.0346-.3515-.0201-.7013.0428-1.0488.0791-.4289.3291-.5653.754-.4108.8884.3232,1.2626.9576,1.1203,1.9029-.0102.061-.0428.1199-.0936.1644-.6891.5998-.8986,1.3235-.6262,2.1711.1137.3498.0508.6627-.191.9411-.4655.5369-.868,1.1061-1.2076,1.7096-.2092.3702-.4654,1.0145-.7642,1.9312-.1729.5264-.4045,1.1852-.6911,1.9738-.1729.4697-.3761.807-.61,1.0165-.1604.1403-.3129.3699-.4572.6871-.1262.2784-.2724.502-.4411.6707-.4473.4473-.7319.7134-.8558.801-.4779.3354-.919.2724-1.3192-.189-.0408-.0448-.0491-.112-.0204-.1667.1828-.3558.4005-.6891.6525-.9981.256-.3152.445-.612.565-.8926.2582-.5995.5326-1.1911.8211-1.7745.3558-.7135.6648-1.4474.9312-2.1974.0264-.0732.0244-.1443-.0062-.1871Z" fill="#1b3063" fill-rule="evenodd" stroke-width="0"/><path d="M131.8552,15.3244c.4045-.0346.7909.063,1.1628.2906.2582.1564.2866.3498.0873.5754-.7418.8374-1.5571,1.5792-2.4474,2.2278-.006.0062-.2072.1301-.5996.3761-.1465.0916-.2846.195-.4167.311-.1445.1281-.2846.2236-.4209.2908-.2662.1279-.5326.2622-.7948.4003-.0547.0286-.0995.0754-.1321.1363l-1.7056,3.2868c-.0426.0813-.0445.1729-.008.248.2705.5511.2988,1.0551.0893,1.5126-.3495.7662-.8597,1.4085-1.5284,1.927-.4068.3149-.6466.7665-.7197,1.3498-.0204.1565.0609.3067.2012.3759.3008.1485.4655.3762.4918.6832.0185.2378-.0507.4816-.2092.7296-.2582.4025-.6363.6812-1.1384.8376-.4818.2135-.9533.2072-1.4127-.0164-.061-.0303-.1058-.0811-.1219-.1443-.0389-.1463-.0468-.2925-.0287-.4411.0267-.195.0244-.3373-.002-.4249-.0751-.2418-.2094-.4674-.4025-.6726-.0873-.0916-.1403-.2115-.1482-.3376-.0448-.6526.1057-1.1872.4493-1.5999.0833-.0995.2579-.2764.5244-.5304.1565-.1485.3211-.2866.498-.4127.0508-.0366.0814-.0955.0834-.1585.0122-.4371.0161-.8722.0122-1.309-.0063-.6769.248-1.1526.7622-1.4312.4858-.2602.7316-.3943.7398-.4006.6974-.5346,1.169-1.2115,1.4128-2.0307.1077-.3597.0043-.4368-.3109-.2336-.9533.6157-1.9372,1.1566-2.9518,1.62-.3412.1565-.6891.1707-1.0445.0448-.2665-.0955-.366-.2846-.2991-.5672.0389-.1607.1423-.3152.307-.4635.2826-.252.5916-.4595.9312-.6239.6301-.303,1.0162-.494,1.1565-.5692.3884-.2134.7929-.3883,1.2135-.5247.4026-.1301.4553-.3455.1588-.6463-.4292-.4308-.6384-.9229-.6262-1.4777.0079-.3458.0122-.5246.0102-.5368-.0102-.3821.0122-.6993.0629-.9513.0547-.2725.1911-.4045.4085-.3963.0916.0039.2299.0771.4167.2174.2826.2115.618.2543,1.0043.1281,1.6688-.5448,3.4294-.7685,5.2852-.6687h0ZM126.5374,17.7554l-.0142,1.0715c-.0039.2744.061.2886.1973.0386.1117-.2053.2804-.3802.5021-.5225.1139-.0731.3333-.1564.6565-.252.7421-.2177,1.3844-.6037,1.925-1.1607.0448-.0448.051-.112.0184-.1608-.1443-.2134-.3518-.2398-.6242-.081-.3739.2174-.7764.3455-1.2095.3841-.508.0467-.9593.2194-1.3516.5204-.0632.0487-.0998.1097-.0998.1624Z" fill="#1a3168" fill-rule="evenodd" stroke-width="0"/><path d="M126.6372,17.593c.3923-.301.8436-.4737,1.3516-.5204.4331-.0386.8356-.1667,1.2095-.3841.2724-.1588.4799-.1324.6242.081.0326.0488.0264.116-.0184.1608-.5406.557-1.1829.943-1.925,1.1607-.3232.0956-.5426.1789-.6565.252-.2217.1423-.3904.3172-.5021.5225-.1363.25-.2012.2358-.1973-.0386l.0142-1.0715c0-.0527.0366-.1137.0998-.1624Z" fill="#f5fafe" fill-rule="evenodd" stroke-width="0"/><path d="M84.9124,23.2847c-.0304-.0712-.118-.1018-.1871-.0652-1.3802.7441-2.6122,1.6018-3.6975,2.5736-.2662.2378-.5692.3761-.9046.4147-.5102.0589-.7787.0895-.805.0955-.4207.0833-.8436.1159-1.2705.0975-.4371-.0181-.7217-.1179-.8538-.2988-.1687-.2338-.1848-.5955-.0445-1.0873.0485-.173.1565-.3235.3027-.4269.1545-.1078.3963-.2095.7257-.305,1.1769-.3374,2.2524-.8782,3.2261-1.62.0975-.0754.3373-.1973.7194-.37.2563-.1159.4899-.248.7033-.3965.5613-.3963,1.1262-.7847,1.6974-1.1668,1.0125-.6769,1.5795-1.0409,1.6997-1.0916.6525-.2744,1.3597-.2928,2.122-.055.0632.0204.1179.061.1485.1179.3456.612.2602,1.1832-.2543,1.7178-1.0264,1.063-1.8153,1.7643-2.3641,2.1079-.4552.2866-.7764.2055-.9634-.2418Z" fill="#1b3063" fill-rule="evenodd" stroke-width="0"/><path d="M50.9507,43.3421c-.2174-.0692-.3656-.1953-.445-.3762-.1667-.3821-.3841-.6891-.6505-.923-.4128-.3597-.7603-.7744-1.0406-1.2438-.4026-.6769-.4312-1.3683-.0876-2.0775.1465-.301.2602-.5672.3415-.8011.1078-.3109.2194-.5751.3374-.7925.5244-.9718.7236-2.0186.5998-3.1428-.0082-.0629-.0142-.1687-.0185-.313-.0102-.307-.1077-.3781-.2967-.2114-.0692.0629-.118.1525-.1463.2724-.4085,1.7257-1.482,2.7686-3.2199,3.1263-.0589.0122-.1199-.0161-.1465-.0692-.2194-.4614-.1341-.8699.2562-1.2257.2948-.2661.4269-.6057.4006-1.0142l1.8153-3.651c.0303-.057.0221-.1262-.0165-.1726-.1604-.1934-.2803-.4068-.3597-.6364-.1363-.3963-.2052-.5976-.2095-.6078-.3617-.8314-.7032-1.673-1.0224-2.5228-.1911-.506-.2481-1.0814-.1687-1.7297.0428-.366.193-.6058.4513-.7217.2134-.0955.4615-.1485.7461-.1565.3577-.0102.559.2174.6037.6871.1035,1.0976.3515,2.0591.7458,2.8846.169.3557.307.3435.4128-.0346.2338-.8436.2724-1.6974.1139-2.5614-.0224-.1242.0731-.2378.1993-.2378.9207.002,1.4553.3537,1.6018,1.059.0732.3518-.0062.8884-.24,1.6078-.2682.8294-.5327,1.6608-.7906,2.4945-.053.1647-.0754.3189-.0652.4612.0365.5287.2075.6058.5122.2299.0794-.0955.1485-.2197.2075-.3742.4104-1.065.8334-1.9553,1.2685-2.6711.2052-.3353.5406-.5162,1.006-.5425.4859-.0267,1.0267.0445,1.6203.2154.1482.0425.2682.1545.3231.2988.2441.6341.5468,1.2501.9088,1.8456.254.419.6789.9493,1.2745,1.5917,1.4187,1.5287,2.7442,3.2567,3.9761,5.1857.1239.193.1341.3903.0324.5935-.1931.3864-.5488.5143-1.067.3822-.6934-.1727-1.3907-.2053-2.092-.0956-.0731.0102-.14.002-.193-.0243-.2217-.1117-.2764-.2827-.1604-.5103.0487-.0955.138-.1788.2681-.254.1077-.0629.2177-.1261.3254-.189.6829-.4045.7093-.8742.0791-1.4069-.3353-.2846-.6199-.5712-.8515-.8577-.4737-.5874-.7237-.8964-.7543-.9289-.9006-.978-1.73-2.0126-2.4922-3.104-.2296-.3314-.5021-.5652-.8173-.7035-.2602-.1157-.4654-.0406-.6179.2216l-.4615.7949c-.0567.0975-.0264.2194.0652.2744.5732.3475.8314.7724.7724,1.2704-.1238,1.0693.004,2.0469.3802,2.9313.1199.2784.3313.4105.6363.3924.0771-.0063.1443.0102.1868.0447.2013.1605.2929.4411.2725.8414-.006.1445.1321.2542.2704.2114.4045-.1238.7177-.1545.9371-.0915.502.1426.6628.4595.4796.9493-.2987.8031-.2012,1.5126.2929,2.1285.2539.315.3985.5162.4328.5996.1792.4249.0267.6789-.4572.7602-.2685.0468-.4575-.0547-.5672-.3047-.2277-.5224-.561-.6525-1.0001-.3903-.2256.136-.4533.1423-.6871.0224-.2296-.12-.4533-.1466-.6727-.0794-.2868.0873-.4048-.0184-.3537-.3132.0567-.3374.0161-.6239-.1199-.8618-.3274-.5629-.423-1.1687-.2869-1.8173.1159-.555-.0386-.8353-.4592-.8436-.1891-.0039-.3254.1769-.2724.3578.1604.5507.0649.8699-.2889.9615-.3475.0873-.6766.0711-.9879-.0527-.3353-.1324-.5589-.1871-.6687-.1627-.2704.0609-.4328.2783-.4858.6545-.1159.8314-.2217,1.6628-.3172,2.4942-.0079.0672.0122.1321.055.1788.2764.3031.6219.4797,1.0389.5347.0587.0082.1097.0487.1278.1077.0978.305.3011.498.61.5814.4431.1179.6789.4005.7073.8478.0042.0629-.0224.1259-.0712.1687-.441.3982-.9635.5771-1.5653.5366Z" fill="#1a3168" fill-rule="evenodd" stroke-width="0"/><path d="M153.8884,31.4037c-.0182.2072.0609.254.2338.138.6871-.4552,1.2765-.9309,1.7685-1.4289.1851-.1871.2968-.3864.3374-.5998.0448-.2316.053-.4695.0224-.7135-.0366-.3169-.0162-.6282.0609-.9309.0164-.0629.059-.116.1179-.1403.4371-.1769.7623-.0712.976.3211.2905.5429.3861,1.1648.2823,1.8703-.0102.0669.0063.1321.0428.1809l.6911.9065c.0386.053.0629.114.0732.1809.0447.3356.189.5856.4331.7503.1667.1117.4226.14.7662.0853.5082-.0813,1.0205-.0896,1.5369-.0224.3393.0428.4714-.1077.3923-.4513l-.3557-1.5429c-.0754-.3293.0609-.494.4105-.496.5144-.002.8742.2032,1.0774.6159.1361.2744.2358.6364.3027,1.0877.0978.6625-.1176,1.1852-.6482,1.5693-.2379.1726-.5834.2744-1.0347.3069-.4575.0346-.9127.0772-1.3702.1302-.1707.0201-.2988.1644-.3008.3373-.006.9045-.114,1.8558-.3232,2.8539-.0121.053.0264.1057.0814.11.8841.0609,1.7135-.1281,2.484-.5692.114-.0652.1361-.2177.0468-.3132-.1525-.1625-.311-.2804-.4799-.3558-.3578-.1604-.6625-.3841-.9168-.6746-.0445-.0511-.0711-.116-.0751-.1812-.0263-.4206.1341-.6361.4777-.6423.1686-.002.3821.055.6443.1729.7237.3232,1.3235.813,1.7991,1.4655.2705.37.2705.7481.002,1.1325-.2256.3231-.5366.5244-.9309.6015-.6548.1281-1.2787.3455-1.8703.6485-.5692.2906-1.1707.4899-1.8051.5976-.2358.0408-.3861.1709-.4493.3883l-.4002,1.3782c-.0185.065-.0652.1137-.1222.1282-.8802.2296-1.6526.1545-2.3173-.2299-.5426-.313-.9352-.5001-1.177-.561-.9737-.2418-1.9839-.4269-3.0328-.555-.0813-.0099-.1525.0612-.1423.1423.0386.3254.0791.6199.1219.8864.002.0141.0142.2174.0366.6077.0142.2398.0896.4533.2296.6384.1933.2582.2991.443.3192.555.0833.4612-.0425.9309-.3759,1.4128-.0672.0975-.1871.14-.2988.1054-.5428-.1604-.9819-.4328-1.3215-.8169-.0507-.057-.1403-.055-.1868.006-.4005.5224-.8396.9575-1.3195,1.307-.4635.3396-.7804.5448-.9513.6199-.254.112-.5244.1486-.809.114-.25-.0306-.4675-.1627-.6545-.3943-.7909-.9799-1.1121-2.1081-.9635-3.3846.0467-.4167.0711-.6281.0711-.6344.0791-.9572.1199-1.9187.1262-2.8802,0-.0956.0892-.1667.1808-.1443.2296.0547.4592.1097.6849.1686.1992.0508.4025.1545.61.315.3758.2908.7948.5023,1.2563.6363.1746.0508.4612.2784.8578.6789.0445.0468.0751.0366.0892-.0283.118-.4941.3742-.86.7665-1.0936.2826-.169.6871-.2523,1.2135-.25,1.3354.0039,2.6059.2987,3.8115.8861.0062.0022.1443.0935.4147.2744.2826.1871.5508.1403.809-.1381.0386-.0408.0346-.1057-.0062-.1443-1.2784-1.2177-2.8091-1.9272-4.5899-2.1262-1.6384-.1831-3.2808-.2991-4.9274-.3478-.3416-.0102-.5976-.0771-.7662-.2033-.2359-.1746-.3884-.4147-.4556-.7217-.1505-.6769-.0751-1.3374.2237-1.9797.0263-.057.0813-.0978.1443-.1037.4269-.0448.8334.0365,1.2197.2417.1483.0794.4717.1588.9655.2379.057.0082.1077.051.1383.1119.0834.1625.252.2705.5103.3232,1.9187.3963,3.8052.9108,5.6613,1.5429.7906.2704,1.5021.6829,2.1303,1.2421.2092.1888.2826.1443.2154-.1301-.0853-.3537-.248-.6993-.4898-1.0369-.0366-.0507-.0956-.0873-.1627-.0955-.8762-.1281-1.5143-.2458-1.9168-.3538-.8884-.2378-.9839-.6077-.2866-1.1097.0465-.0346.1117-.0508.1828-.0468l1.0551.0751c.0629.0043.1219-.0303.1482-.0893.1588-.3498.0896-.5712-.2072-.6627-.0366-.0122-.2256-.0185-.5672-.0162-.3353.002-.5652-.1423-.6871-.4331-.0386-.0936-.1647-.1097-.2276-.0304-.5347.6687-1.2155.7867-2.043.3535-.055-.0303-.0873-.0893-.0813-.1525.0306-.3149.1423-.5527.3373-.7174.1772-.1503.2704-.2296.2806-.2398.1973-.2013.3802-.368.5488-.4961.2135-.1604.3396-.3739.3762-.6403.0589-.4125.2032-.7827.4371-1.1118.0385-.053.0975-.0876.1627-.0896.6117-.0263.868.2787.7662.9148-.057.3557-.0955.6545-.1159.8966h0ZM156.5351,31.3793c0,.2622.1119.4226.3333.4796.2787.0731.3943-.0326.3478-.3152-.0978-.6035-.301-.7194-.612-.3475-.0448.053-.0691.1179-.0691.1831h0ZM155.3743,32.243c.0224.2339.1403.3923.3557.4757.059.0243.1262.0042.1627-.0488.0732-.1077.1097-.2256.1117-.3538.0023-.1502-.0567-.2599-.1766-.331-.1383-.0814-.2684-.055-.3923.0771-.0448.0487-.0672.1139-.0612.1808h0ZM158.2996,33.9223c.1361-.5327-.0731-.8011-.6281-.8051-.2622-.002-.5185-.053-.7643-.1525-.1241-.0487-.2562.0468-.2502.1789.0102.2236.0447.4512.1037.6851.0326.1281.1018.1769.2075.1463.0813-.0244.1525-.0304.191-.0162l.6302.2174c.2744.0936.443.0083.5102-.2539h0ZM157.6145,35.9292c.1242-.0862.1341-.2914.019-.457-.1145-.1658-.3096-.2327-.4337-.1459-.1239.0858-.1341.2911-.0187.4569.1142.1655.3095.2327.4334.146h0ZM146.5806,40.0145c-.2885.75-.2968,1.4899-.0263,2.2198.1159.3129.2012.5122.254.5955.1831.2906.4532.2764.8132-.0428.3334-.2948.6829-.7115,1.0488-1.25.0346-.0508.0346-.118-.0019-.1687-.2583-.3679-.5307-.6222-.8173-.7665-.3537-.1746-.6749-.3943-.9655-.6585-.0978-.0896-.2562-.053-.305.0712Z" fill="#183270" fill-rule="evenodd" stroke-width="0"/><path d="M156.6042,31.1962c.311-.3719.5142-.256.612.3475.0465.2826-.0691.3883-.3478.3152-.2214-.057-.3333-.2174-.3333-.4796,0-.0652.0243-.1301.0691-.1831Z" fill="#fff" fill-rule="evenodd" stroke-width="0"/><path d="M155.4355,32.0622c.1239-.1321.254-.1585.3923-.0771.1199.0711.1789.1808.1766.331-.002.1282-.0385.2461-.1117.3538-.0365.053-.1037.0731-.1627.0488-.2154-.0834-.3333-.2418-.3557-.4757-.006-.0669.0164-.1321.0612-.1808Z" fill="#fff" fill-rule="evenodd" stroke-width="0"/><path d="M158.2996,33.9223c-.0672.2622-.2358.3475-.5102.2539l-.6302-.2174c-.0385-.0142-.1097-.0082-.191.0162-.1057.0306-.1749-.0182-.2075-.1463-.059-.2339-.0935-.4615-.1037-.6851-.006-.1321.1261-.2276.2502-.1789.2458.0995.5021.1505.7643.1525.555.004.7642.2724.6281.8051Z" fill="#fafdff" fill-rule="evenodd" stroke-width="0"/><path d="M157.6145,35.9292c-.1239.0867-.3192.0195-.4334-.146-.1154-.1658-.1052-.3711.0187-.4569.1241-.0868.3192-.0199.4337.1459.1151.1656.1052.3708-.019.457Z" fill="#fff" fill-rule="evenodd" stroke-width="0"/><path d="M146.5806,40.0145c.0488-.1242.2072-.1608.305-.0712.2906.2642.6118.4839.9655.6585.2866.1443.559.3986.8173.7665.0365.0507.0365.1179.0019.1687-.3659.5385-.7154.9552-1.0488,1.25-.36.3192-.6301.3334-.8132.0428-.0528-.0833-.1381-.2826-.254-.5955-.2705-.7299-.2622-1.4698.0263-2.2198Z" fill="#fff" fill-rule="evenodd" stroke-width="0"/><path d="M23.0672,59.472l-.1423-1.2115c-.006-.057-.0508-.1077-.1117-.1261-.4289-.1259-.7398-.3699-.9371-.7297-.1585-.2865-.0771-.5102.246-.6667l.9615-.4674c.2092-.1018.3252-.301.3476-.5998.0569-.7297-.0122-1.3252-.2073-1.7827-.3577-.8354-.4331-1.5755-.2236-2.2198.2115-.6506.7194-1.0225,1.5245-1.118.5672-.0672.9756.0794,1.2279.4391.7013.998,1.626,1.7033,2.7746,2.114.2398.0874.8234.3334,1.7524.7379.3597.1565.6321.2928.8212.4127.2704.1727.4084.2603.4127.2622,1.8762,1.0021,3.8174,1.8539,5.8238,2.5552.0102.004.1788.0527.502.1463.8234.2378,1.2645.8112,1.3215,1.7197.0099.1486-.0774.2846-.2157.3396-.6483.2602-1.3048.4879-1.9738.6849-.5771.1689-.9147.2582-1.0122.2644-.4371.0304-.7623-.1831-.9757-.6383-.0224-.0488-.0102-.1117.0326-.1607l.5771-.6585c.1261-.1443.0751-.3762-.1057-.4819-.7379-.4329-1.5021-.8048-2.2969-1.116-.8193-.3212-1.232-.4836-1.2359-.4859-1.3153-.5547-2.1873-.9879-2.6142-1.2948-.3619-.258-.6749-.4612-.9413-.6078-.4391-.2418-.756-.4328-.9494-.5732-.7032-.5082-1.4675-.8966-2.2949-1.1627-.1443-.0468-.2968.0448-.3251.193-.063.3436-.0751.6871-.0386,1.0267.0712.6605.1055.9981.1055,1.0103-.0284.5386-.201,1.0366-.5162,1.4941-.0366.0528-.0488.118-.0326.1789.4087,1.5307.6018,2.4454.5833,2.7482-.0425.6973.1647,1.2685.6223,1.7158.2987.2925.4532.6179.4595.9737.0019.0955-.0876.4187-.2685.9694-.1505.4615-.2032.9372-.1587,1.427.0224.2421.1119.4901.2704.7441.1443.2296.2908.4575.4351.6871.1931.3028.3983.5264.6199.6707.3558.2319.5366.3498.5429.3557,1.0284.8762,1.8354,1.4922,2.4188,1.846.4433.2681,1.3805.7378,2.8094,1.4085.4878.2299.8011.4371.9411.6242.2256.3027.3274.6973.303,1.1809-.0263.5224-.2562.8478-.6851.9757-.9981.2971-1.9942.2928-2.9883-.0142-1.9026-.5873-3.5022-1.4026-4.8013-2.4474-.5976-.4816-.7926-1.1506-.5854-2.0084.0162-.0609.0672-.1057.1282-.1077.3801-.0102.695.1179.947.3841.2075.2217.3132.3337.3192.3376.7055.6321,1.4414,1.2257,2.2076,1.7847.3354.2418.7033.4045,1.1081.4879.8923.1808,1.1361-.004.7296-.5571-.1037-.14-.2622-.2803-.4756-.4166-.5185-.3354-.9454-.6605-1.2787-.9718-.7379-.693-1.313-1.2013-1.7278-1.5244-.5408-.4207-1.053-.8742-1.5369-1.3558-.4694-.4697-.8192-.925-1.0468-1.3661-.2682-.5204-.4573-1.0712-.565-1.6545,0-.0063-.0204-.2991-.0589-.8805-.055-.8192-.4981-1.3841-1.3275-1.6931-.3719-.1403-.9352-.4555-1.6892-.9454-.0062-.0039-.305-.1726-.8986-.506-.5346-.303-.9615-.7319-1.2767-1.2869-.1684-.2925-.199-.5712-.0913-.8354.0874-.2134.2725-.3801.5571-.498.6565-.2704,1.3373-.2724,2.0386-.0062.4108.1567.4068.2624-.0122.3172-.5385.0731-.7154.2763-.5264.6077.0752.1321.2194.2724.4332.4167.5547.3781,1.1891.7645,1.9026,1.1568.2622.1443.3759.0712.3413-.2217Z" fill="#163278" fill-rule="evenodd" stroke-width="0"/><path d="M100.1318,76.7812c-.9269.059-1.8416.2053-2.7422.4369-.9167.2358-1.7665.5836-2.5512,1.0428-2.3193,1.3558-4.0269,3.3075-5.1225,5.8544-.9756,2.2686-1.5998,4.635-1.8703,7.0985-.0447.3963-.1258.4045-.2437.0244-1.4293-4.5879-2.8012-9.1839-4.1125-13.7883-.5284-1.8518-.811-2.8723-.8496-3.0594-.2177-1.0528-.2928-2.1161-.2276-3.1912.0751-1.2138.3189-2.2485.7316-3.1043.4717-.9756,1.1628-1.8232,2.0716-2.5409.8515-.6707,1.7359-1.1829,2.6546-1.5367.9006-.3475,1.8216-.6242,2.7587-.8274.7458-.1625,1.6424-.2398,2.6892-.2339,2.3091.0145,4.6185.0448,6.9276.0916,7.4889.1525,14.9774.303,22.4683.4493.0141,0,.4493.0184,1.307.0569,1.48.0649,3.041-.1017,4.6837-.502,3.6-.8762,6.8828-2.4211,9.8447-4.6389,1.0996-.8232,2.1912-1.6914,3.2726-2.6019.1647-.1383.2115-.1057.1403.0955-.9167,2.6569-1.9615,5.2121-3.1325,7.6655-1.3436,2.8196-3.2258,5.4093-5.6449,7.7695-3.2159,3.1385-6.9988,5.0309-11.3511,5.6795-.9941.1482-2.3457.2012-4.0552.1624-4.5272-.1075-9.0542-.2214-13.5811-.3433-2.3499-.0632-3.7057-.0814-4.0655-.059Z" fill="#fff" fill-rule="evenodd" stroke-width="0"/><path d="M177.3791,59.3014c-.2135.8436-.7521,1.2297-1.6161,1.1585-1.0366-.0853-2.0063-.0649-2.9066.0632-.9088.1279-1.5817.2458-2.0186.3578-.6525.1666-1.2849.445-1.8966.8373-.5225.3314-1.2422.7299-2.1609,1.1934-.7075.3577-1.4088.5204-2.1019.4878-.3801-.0184-.6769-.1301-.8903-.3376-.2866-.2763-.3782-.6199-.2744-1.0284.0711-.2766.2358-.5.4938-.6729.2177-.1443.4779-.2764.7786-.3923.6322-.2438,1.1608-.4411,1.5857-.5936.4695-.1687,1.0163-.3027,1.6405-.4065,1.3172-.2154,2.6322-.4473,3.9435-.6953.3169-.059.7926-.0975,1.429-.1157.9595-.0266,1.8722-.2645,2.736-.7115.1159-.0612.1791-.191.1505-.3192-.0955-.4532-.1179-.9068-.0672-1.3558.0428-.3821.1769-.6485.4025-.801.2095-.1423.4493-.1809.7217-.1157.1789.0425.364.1726.555.3881.7784.8801,1.7096,1.5653,2.791,2.0551.2257.1017.4431.2217.6483.3577.1364.0916.3215.2523.5531.4819.3353.3294.695.6282,1.0814.8943.3416.2359.5672.4167.6789.5409.1953.2194.3537.4674.4756.7418.116.2602.053.4655-.189.614-.3598.2217-.756.3231-1.1849.305-.0632-.0023-.1262-.0266-.1831-.0672-.6628-.4736-1.4046-.8274-2.2258-1.061-.193-.055-.3986-.0388-.5794.0488-1.2217.5833-2.1872,1.4147-2.8967,2.4981-.0873.1321-.0547.307.0711.4026,1.5511,1.1525,2.9007,2.4698,4.0473,3.9498.6361.8231.5528,1.2826-.252,1.3821-.3294.0406-.6811.0083-1.057-.0995-.7359-.2114-1.3723-.5935-1.9109-1.1486-.0082-.0082-.1768-.1485-.5042-.4209-.2072-.1726-.3291-.4022-.368-.6911-.0079-.0609-.0507-.1117-.1097-.1301-.6281-.2092-1.1038-.5956-1.4309-1.1565-.0082-.0142-.1344-.1832-.3762-.5083-.1363-.1808-.193-.4005-.1749-.6565.0063-.0754-.0039-.1403-.0303-.1953-.2279-.4958-.5958-.7603-1.1058-.7906-.2217-.0142-.5082-.0102-.858.0122-.1951.0142-.3861.0507-.5712.1097-.2682.0853-.4553.1301-.559.1341-.5284.0184-.811-.2052-.8476-.6707-.0224-.2988.0567-.5916.2379-.8801.3923-.6223,1.0122-.8825,1.8598-.7787.8274.0998,1.612.3801,2.3499.8416.1667.1037.25.0589.248-.1383-.0039-.4899.1486-.7886.4595-.8924.1282-.0425.3436-.004.6443.114.4737.189.8802.0892,1.2198-.2968.1769-.2013.2681-.305.2724-.307.5547-.5224,1.2461-.7827,2.0775-.7827.2378,0,.2622-.0711.0689-.2114-.8252-.6078-1.7419-.8272-2.7502-.6585-.0609.0102-.1097.057-.1241.1179Z" fill="#163274" fill-rule="evenodd" stroke-width="0"/><path d="M30.3222,60.5433c.4453.5.9371,1.0715,1.476,1.7115.2724.3235.4391.6242.502.9006.0794.3478.0853.7013.0204,1.0652-.0122.0672-.049.1262-.1018.1647-.3841.2764-.7846.2764-1.2013,0-.193-.1281-.4839-.6057-.8719-1.4332-.0286-.0629-.0754-.1116-.1324-.1423-.4167-.2213-.6503-.1462-.697.2277-.0185.1647.0181.3619.1116.5935.0976.2379.2053.4859.3212.7402.112.2437.2968.4002.555.4694.5834.1545,1.1243.4147,1.6243.7806.0527.0406.0873.0976.0932.1605.0185.1933,0,.3801-.0566.5652-.0185.061-.0652.1097-.1282.1301-1.1344.3801-2.234.3008-3.2972-.2398-.063-.0326-.0995-.0935-.0893-.1485l.2032-1.061c.0142-.0712.006-.1361-.0244-.1749-.6301-.8294-.7766-1.8335-.441-3.0124.0405-.1423.1624-.2441.3047-.2543l1.0511-.0711c.1443-.0102.2336-.1627.1667-.2886-.557-1.0491-1.3377-1.8845-2.3437-2.5064-.057-.0346-.0916-.0935-.0896-.1525.0102-.2012.1423-.3152.3983-.3435.5184-.055,1.1163-.0244,1.7929.0955.051.0102.0998-.0306.0955-.0814-.0425-.6117-.3149-.9694-.813-1.0712-.2704-.055-.6709.0142-1.2013.2052-.3985.1443-.7988.2827-1.2013.4147-.059.0185-.1222-.0019-.1545-.0527-.1324-.2075-.1689-.4308-.1097-.6709.0142-.061.0527-.118.1074-.1605.8805-.6851,1.8703-.9879,2.9702-.9088.2905.0224.5303.11.7237.2645.2072.1667.3821.3699.5221.6078.1324.2236.3274.3373.5856.3435.3782.0099.809.1035,1.2949.2846.3396.1279.4005.3354.1828.6239-.1301.1729-.3699.307-.7194.3986-.7481.2012-.8133.5224-.1953.9674.1851.1321.3722.2622.561.3864.1281.0833.3313.1808.61.2886.2846.1097.5468.2622.7886.4572.5082.4087,1.0389.7849,1.5916,1.1285.0083.0059.1466.0833.4167.2316.6101.3353.9981.8518,1.1628,1.5468.0142.0652.0488.1242.0978.169.6137.5731.7988,1.2458.5567,2.0185-.0791.258-.2052.4451-.3739.565-.2744.193-.5366.1423-.7888-.1483-.1443-.1647-.2399-.3557-.2886-.5692-.1647-.7299-.3963-1.3703-.6931-1.9171-.2622-.4796-.6831-.9309-1.2665-1.3518-1.0386-.75-2.1872-1.4066-3.4475-1.9655-.3943-.1749-.4473-.1018-.1607.2194Z" fill="#163278" fill-rule="evenodd" stroke-width="0"/><path d="M14.6517,63.4686c-.0712-.3356-.0264-.7197.1321-1.1526.0468-.1261.1584-.2157.2908-.2298.4898-.0548.9797-.1058,1.4715-.1483.9108-.0794,1.7098.1301,2.3947.6282.3617.2622.616.6097.7602,1.0468.1423.4328.2095.8762.1993,1.3334-.0082.4229-.2055.5508-.5936.3821-.6159-.2681-1.2421-.5122-1.8762-.7296-.2217-.0754-.5814-.1423-1.0834-.1993-.4005-.0448-.7846-.1505-1.1529-.3192-.3067-.1403-.4878-.3435-.5425-.6117Z" fill="#163278" fill-rule="evenodd" stroke-width="0"/><path d="M171.5675,75.2038c.1992-.2846.3659-.5877.502-.9088.0833-.1931.1607-.3232.2338-.3904.1341-.1199.2906-.1663.4675-.1423.1179.0165.191.1364.1525.2481-.1769.5145-.3232,1.0307-.4411,1.5511-.002.0062-.0385.2398-.1097.7013-.057.3557-.1687.6931-.3333,1.0165-.0307.0587-.0834.1015-.1443.1179-.7807.2033-1.3173-.0592-1.6081-.7889-.7744-1.9411-1.6424-3.7383-2.6039-5.3889-.0326-.0567-.0508-.1219-.0508-.1888v-.8215c0-.3211.0567-.5731.1727-.756.1442-.2299.3376-.417.5794-.5652.6607-.4025,1.3314-.7744,2.0123-1.114.3356-.1687.3435-.3476.0204-.5406-.4717-.2826-.9777-.4697-1.5165-.5613-.4167-.0711-.8071-.2092-1.1727-.4186-.4635-.2662-.8845-.3841-1.2646-.3558-.4187.0306-.7359-.057-.9533-.2662-.3231-.3152-.3659-.5833-.1241-.809.1383-.1281.3415-.2035.608-.2236.6769-.053,1.311.1057,1.9046.4756.4207.2622.7543.2053,1.0021-.1709.0915-.138.1383-.2092.1423-.2154.4492-.5712.9697-.5995,1.5573-.0811.6035.5346,1.2115,1.065,1.8193,1.5914.0609.053.0995.1139.1057.1647l.1057.9453c.008.0771.0324.1403.065.1749.5306.5346,1.1809.8314,1.9513.8861.3518.0267.5979.1525.7339.3824.1647.2722.1038.4796-.1788.6219-.7339.368-1.3944.3272-1.982-.1241-.2846-.2174-.6322-.4246-1.0409-.618-.1298-.0609-.2823-.0343-.3861.0652-.4776.4655-1.0083.8924-1.5956,1.2807-.2908.1931-.4697.3617-.5369.5083-.1077.2398-.0933.5102.0448.809.2806.6077.5184,1.2316.7155,1.872.2279.7378.5692,1.417,1.0247,2.0389.0303.0406.0915.0406.1219-.0019Z" fill="#163278" fill-rule="evenodd" stroke-width="0"/><path d="M173.4375,67.0442c-.0567-.0731-.0995-.1545-.1259-.242-.2032-.6707-.2177-1.234-.0405-1.6912.1199-.309.2988-.4289.5366-.362.1239.0369.2622.1466.4104.3314.5897.7259,1.1671,1.4026,1.732,2.033.2787.311.2217.5386-.1686.6849-.9006.3356-1.6813.0856-2.344-.7541Z" fill="#163274" fill-rule="evenodd" stroke-width="0"/><path d="M182.8635,65.6394c.0754-.0547.1789-.1423.307-.2622.1364-.1279.2866-.1463.4473-.0567.0547.0303.0975.0853.1199.1522.1625.4839.1993.978.1117,1.48-.0122.0731-.0507.1341-.1015.1607l-1.0247.5448c-.2579.1361-.5264.0933-.807-.1324-.5692-.4572-1.0712-.9756-1.5061-1.557-.0467-.0649-.0671-.1341-.0549-.1848l.2418-.9148c.0144-.053.0773-.0794.1403-.0612.6789.2095,1.3294.4901,1.9516.8376.0567.0326.1259.0306.1746-.0062Z" fill="#163278" fill-rule="evenodd" stroke-width="0"/><path d="M58.0762,66.8931c.0505.1205-.0391.273-.2001.3402-.1602.0669-.3308.0224-.3821-.0989-.0505-.1208.0391-.2733.2001-.3405.1601-.0669.3308-.0221.3821.0992Z" fill="#163277" fill-rule="evenodd" stroke-width="0"/><path d="M52.6422,76.2758c-.0652.1009-.2135.1211-.3297.0457-.1176-.0749-.1582-.2192-.0935-.3195.0654-.1009.2137-.1213.3299-.0456.1177.0748.1582.2191.0933.3194Z" fill="#616baa" fill-rule="evenodd" stroke-width="0"/><path d="M64.0114,79.932c1.8093.6341,3.3296,1.2968,4.5615,1.9859,1.4757.8274,2.7626,1.7768,3.8622,2.846.7381.7174,1.3581,1.5386,1.8621,2.4596.3294.6038.6891,1.5571,1.0774,2.8562,1.0916,3.6425,2.2116,7.3077,3.3602,10.997.0264.0836.1015.1403.1871.1426l11.9384.1502c.0813.002.1443-.0672.1361-.1482-.2784-2.8602.0773-5.6308,1.0632-8.3121.5996-1.6304,1.4678-2.9395,2.6082-3.9274,1.8314-1.5854,4.045-2.5979,6.641-3.035,1.4819-.25,3.041-.3617,4.6794-.3311,10.0174.1809,18.165.3515,24.444.5142,3.4132.0873,6.6311-.6403,9.6557-2.1832,2.3845-1.1832,4.6531-2.5592,6.8037-4.1307.5998-.4371,1.2135-.8597,1.8377-1.2662.1179-.0754.1604-.0448.1301.0913-.9819,4.2202-2.7666,8.0537-5.3544,11.4995-.9371,1.2481-1.809,2.2848-2.616,3.1102-1.4128,1.4431-3.0351,2.6586-4.8666,3.6468-3.0308,1.6322-6.2183,2.6974-9.5663,3.1955-.7461.1097-1.5874.14-2.5266.0893-3.6592-.197-7.3182-.3739-10.9791-.5327-1.1565-.1156-2.4454-.1686-3.8622-.1604-1.8539.0102-3.6102.3291-5.269.9553-2.3174.8742-4.1264,2.287-5.4295,4.2403-.6364.9576-1.1809,2.1935-1.6302,3.7058-.5468,1.8396-.8742,3.6836-.9839,5.5292-.0185.311-.1829.4655-.4941.4615l-12.2168-.1545c-.0876,0-.1505.0834-.1241.1667,1.1934,3.8032,2.3539,7.5719,3.4781,11.3043,1.9352,6.4295,3.8786,12.8551,5.832,19.2807.0873.2908.2012.5754.3396.8538.0507.1037-.0287.2236-.1443.2177-2.4029-.1364-4.769-.2929-7.0985-.4658-2.3134-.1706-3.6632-.2846-4.0473-.3413-2.602-.3883-4.9397-1.3294-7.011-2.8236-2.423-1.7481-4.3237-3.9478-5.7041-6.6004-.9046-1.7422-1.5795-3.3013-2.0206-4.6814-3.7403-11.6845-7.4846-23.3669-11.2308-35.047-.1038-.3255-.4819-1.6263-1.1345-3.9031-.3883-1.364-.8455-2.7036-1.3699-4.0229-.6018-1.5103-1.3661-2.9333-2.2933-4.2667-1.5142-2.1793-3.4435-3.8908-5.7852-5.1347-.4085-.2216-.815-.4493-1.2175-.6831-1.1202-.6526-2.3255-1.0854-3.6122-1.2989-.0326-.0062-.0487-.0204-.0487-.0467,0-.0287.0283-.0511.0629-.0511,3.6853-.0039,7.3607.1628,11.0257.4981,1.3923.1281,2.7342.3112,4.0229.553,3.0472.5732,6.0556,1.3051,9.0275,2.1975h0ZM108.9791,95.4587c.0745-.0513.0847-.163.0238-.2528-.061-.089-.171-.1196-.2444-.0692-.0748.0513-.085.163-.0241.2529.061.089.1707.1196.2447.0691Z" fill="#fff" fill-rule="evenodd" stroke-width="0"/><path d="M108.9791,95.4587c-.074.0505-.1837.0199-.2447-.0691-.0609-.0899-.0507-.2016.0241-.2529.0734-.0504.1834-.0198.2444.0692.0609.0898.0507.2015-.0238.2528Z" fill="#f5f8fd" fill-rule="evenodd" stroke-width="0"/><path d="M123.8765,123.4333c-3.0571-.2316-5.462-.3538-7.2161-.364-2.2422-.0142-4.1857.6545-5.8343,2.0044-.9085.7461-1.7277,1.732-2.4576,2.9619-.6526,1.0956-1.179,2.2827-1.5795,3.5592-.5468,1.732-.9513,3.4517-1.2155,5.1593-.1607,1.0508-.3172,2.3967-.4697,4.0371-.1258,1.3558-.2012,2.7156-.2256,4.0796-.0102.3558-.0122.7135-.008,1.0693,0,.0365-.0082.0672-.0224.0896-.0428.0669-.0833.0507-.1179-.0531-.8986-2.6832-1.868-5.8218-2.9069-9.4158-.3538-1.2214-.7438-2.5186-1.171-3.8948-.9714-3.1365-1.6829-5.6591-2.1342-7.564-.4065-1.7155-.5774-3.5308-.5102-5.4456.0547-1.5999.2622-2.9333.6219-4.0005.8436-2.5064,2.539-4.2993,5.0839-5.3808,1.3561-.5751,2.8276-.9249,4.4113-1.0448.4431-.0346,1.7969-.0366,4.0635-.004,5.6735.0814,11.349.1179,17.0243.1097,1.169-.002,2.3377-.0244,3.5067-.0672,2.0143-.0751,4.0085-.2865,5.9865-.638,1.3924-.2461,2.7057-.5755,3.9373-.9882,3.905-1.3071,7.5073-3.293,10.8043-5.9621.1891-.1525.246-.1137.1686.1179-.3719,1.112-.7642,2.1852-1.1769,3.2222-.502,1.254-.9411,2.311-1.3192,3.1668-1.0752,2.4353-2.3948,4.7364-3.9617,6.9032-1.7728,2.4537-3.966,4.4416-6.5804,5.9664-.4411.2582-.8821.5182-1.3192.7846-.5142.311-.9715.5386-1.372.6809-1.1486.4045-2.4639.6891-3.9478.8518-2.0591.2257-3.7545.309-5.082.254-1.6605-.0712-3.3193-.1361-4.9802-.195Z" fill="#fff" fill-rule="evenodd" stroke-width="0"/><path d="M123.9273,137.2561c1.3844,1.0429,1.8397,2.2442,1.3702,3.6043-.191.5527-.7114,1.311-1.5633,2.2725-1.0468,1.1809-2.1058,2.348-3.177,3.5045-.0346.0366-.0692.0629-.1077.0794-.0428.0181-.0876.0323-.1302.0425l-2.6812-.059c-.0672-.002-.0794-.0263-.0346-.0771l2.8641-3.1487c.0853-.0935.0652-.1363-.0609-.1301-1.2014.0669-2.2768-.2421-3.2262-.925-.4552-.3293-.7846-.7744-.9878-1.3376-.1849-.5103-.2296-1.0406-.1361-1.5917.1423-.8436.5508-1.5366,1.2277-2.0755.3577-.2866.6769-.5083.9595-.6687.3192-.1828.6891-.3212,1.1098-.4127,1.7237-.3801,3.2485-.0712,4.5737.9229h0ZM122.961,139.9369c.0252-.957-.9545-1.7598-2.1898-1.7918-1.2345-.0332-2.255.7169-2.2808,1.6747-.0252.957.9547,1.76,2.1901,1.7921,1.2345.0331,2.2549-.7172,2.2805-1.675Z" fill="#fff" fill-rule="evenodd" stroke-width="0"/><path d="M111.4441,138.2644l-1.427-.1057c-.0547-.004-.0975-.053-.0955-.1097l.0263-1.6773c.002-.0791.0633-.142.1364-.14l3.9985.057c.0811.002.1463.0689.1443.1522l-.1587,10.0358c-.002.0589-.0468.108-.1057.1139-.7906.0672-1.5509.057-2.2808-.0303-.059-.0062-.1035-.057-.1035-.1159l.1117-7.9096c.002-.1422-.1057-.2602-.246-.2704Z" fill="#fff" fill-rule="evenodd" stroke-width="0"/><path d="M135.0059,136.6464v1.6688c0,.1159-.0975.2094-.2154.2075l-4.0391-.0448c-.057,0-.1097.0405-.1261.1015l-.3374,1.2361c-.0793.2866.0244.4003.311.3456,1.1891-.2299,2.2827-.1446,3.2831.2579,1.0386.4167,1.7521,1.0613,2.1384,1.9353.3476.7866.3172,1.5978-.0935,2.4375-.2764.5669-.6851,1.0406-1.2257,1.4187-.5389.3762-1.1302.6262-1.7748.752-.6848.1324-1.4006.1588-2.1466.0754-.7093-.0773-1.4046-.2865-2.0875-.6301-1.0511-.5267-1.6792-1.3397-1.8884-2.4395-.0102-.057.0303-.1097.0853-.1117l2.1526-.0428c.0975-.002.1911.057.2441.1525.563,1.0468,1.4187,1.484,2.5693,1.311.4941-.0751.9006-.2316,1.2237-.4714.3396-.2542.5551-.6057.6466-1.055.1443-.7013-.1261-1.2402-.8152-1.6121-1.118-.6038-2.2218-.5102-3.3115.2826-.0507.0366-.1159.0508-.1808.0346l-1.8315-.4167c-.0955-.0204-.1545-.1139-.1324-.2052l.7847-3.0614.5346-2.1487c.0144-.0589.0652-.1017.1241-.1057,2.039-.0916,4.0757-.0488,6.1084.1281Z" fill="#fff" fill-rule="evenodd" stroke-width="0"/><path d="M140.2038,138.6343l-1.3255-.1116c-.0567-.0043-.0995-.057-.0975-.118l.0428-1.6262c.002-.0794.0649-.1423.1443-.1403l3.9008.0609c.0569.002.1037.0468.1017.1018l-.1505,10.1415c0,.059-.0468.1055-.1035.1035l-2.169-.059c-.116-.002-.2095-.1015-.2072-.2236l.1136-7.877c.002-.1301-.1077-.2398-.25-.252Z" fill="#fff" fill-rule="evenodd" stroke-width="0"/><path d="M99.9507,0C44.7494,0,0,44.7495,0,99.9508s44.7494,99.9507,99.9507,99.9507,99.9508-44.7497,99.9508-99.9507S155.1518,0,99.9507,0h0ZM99.9507,4.3818c52.7811,0,95.569,42.7879,95.569,95.569s-42.7879,95.5689-95.569,95.5689S4.3818,152.7319,4.3818,99.9508,47.1696,4.3818,99.9507,4.3818Z" fill="#1a3168" fill-rule="evenodd" stroke-width="0"/><path d="M10.9074,108.8436l10.1971-1.6744.2222,1.353-4.2015.6899.8654,5.2694,4.2015-.6897.222,1.353-10.1971,1.6744-.2222-1.353,4.7996-.788-.8654-5.2696-4.7996.788-.222-1.353h0ZM24.3989,123.1419l-5.7662,1.5293c-1.2555.333-2.1561.3529-2.7071.0584-.5485-.2948-.9527-.927-1.2093-1.8942-.1496-.5649-.1652-1.0734-.0456-1.5233.1168-.4515.3625-.8104.7316-1.08.3665-.269.9867-.5204,1.8539-.7506l5.7662-1.5293-.3515-1.3252-5.7685,1.5299c-1.0579.2806-1.8587.6298-2.4029,1.0457-.5443.4155-.8972.9618-1.0625,1.6429-.1658.6786-.1235,1.4859.1239,2.4183.2551.9626.6466,1.6877,1.1736,2.1824.5264.4926,1.116.7741,1.7648.8461.6503.0686,1.478-.0289,2.4826-.2951l5.7682-1.5301-.3512-1.3252h0ZM15.6305,129.4175l9.6721-3.638.4946,1.3147-5.6831,7.9305,7.592-2.8556.4623,1.2291-9.6724,3.6383-.4943-1.315,5.6829-7.9302-7.5918,2.8556-.4623-1.2294h0ZM18.9694,138.331l.7226,1.2581,3.274-.5877,2.1668,3.7735-2.1203,2.5963.775,1.3495,6.866-8.7944-.7486-1.3037-10.9355,1.7084h0ZM24.1299,138.7962l3.1944-.5281c.6859-.1193,1.3544-.2837,2.0092-.4963-.4074.4308-.9088,1.0017-1.5024,1.7172l-1.9477,2.361-1.7535-3.0538h0ZM24.4057,147.8206l8.449-5.9499.809,1.1486-3.5102,9.1031,6.6317-4.67.7563,1.0737-8.449,5.9499-.809-1.1486,3.5101-9.1031-6.6316,4.67-.7563-1.0737h0ZM32.9201,158.9962l.9046,1.0304,7.7655-6.8179-.9046-1.0304-7.7655,6.8179h0ZM35.5473,161.9504l7.1577-7.4537,1.0131.9732-1.7073,9.6057,5.618-5.8504.9474.9096-7.1575,7.4538-1.0134-.9732,1.7076-9.6057-5.6183,5.8504-.9473-.9097h0ZM45.1091,166.2064c-.4121.5542-.6474,1.1557-.7021,1.8079-.0579.6525.0762,1.279.405,1.8842.3269.6035.8558,1.1951,1.5889,1.7728.5799.4569,1.1829.7608,1.8127.9139.6296.1531,1.2166.1349,1.7649-.0516.5482-.1865.9895-.4944,1.3305-.9269.3425-.4346.5332-.9057.5704-1.4154.0388-.5116-.095-1.061-.394-1.6492-.209-.4033-.6724-1.0474-1.3887-1.9335-.718-.8844-1.1033-1.5032-1.1637-1.8541-.0609-.3541.0224-.6775.2518-.9683.265-.3365.6406-.506,1.1247-.5103.4842-.0042,1.0523.2503,1.7023.7625.6233.4913.9929.9939,1.1055,1.5081.1136.5125-.0046,1.0471-.3532,1.6024l1.0941.7336c.3564-.491.5605-1.0222.6092-1.5934.0505-.5728-.0779-1.1366-.3852-1.6911-.3059-.5564-.7608-1.0709-1.3615-1.5446-.5462-.4303-1.116-.7291-1.7076-.8955-.5939-.1675-1.1449-.1638-1.6588.01-.5122.172-.9315.4631-1.2561.875-.2933.3722-.4654.7849-.5113,1.2356-.0477.4493.0399.9289.2664,1.4381.1735.394.5624.9731,1.1671,1.7407.6049.7676.9824,1.2796,1.1341,1.5338.2375.3983.356.7492.3546,1.0542-.0031.307-.1035.586-.303.8391-.1965.2494-.4572.4209-.7784.5136-.3215.093-.6863.078-1.0967-.0462-.4102-.1244-.819-.3484-1.2289-.6715-.4609-.3631-.8124-.7722-1.0544-1.2229-.2404-.4529-.3456-.879-.3158-1.2781.0312-.4011.1831-.8232.4575-1.2685l-1.0803-.7044h0ZM53.5507,176.2714l4.5728-7.8926-2.9469-1.7075.6078-1.0491,7.0806,4.1025-.6077,1.0491-2.9472-1.7075-4.5731,7.8922-1.1863-.6871h0ZM59.3209,179.4844l1.2172.631,4.7565-9.1737-1.2172-.6313-4.7565,9.174h0ZM65.2838,182.2879l3.4274-8.4529-3.1564-1.2799.4556-1.1236,7.5838,3.075-.4558,1.1234-3.1564-1.2799-3.4274,8.4532-1.2708-.5153h0ZM80.678,176.6271l-1.7102,5.7152c-.3725,1.2444-.8263,2.0225-1.3651,2.3383-.5383.3135-1.2884.3274-2.2471.0405-.5598-.1675-1.0015-.42-1.3226-.7574-.3237-.3353-.5012-.7324-.5383-1.188-.0374-.4529.0723-1.1131.3294-1.9729l1.7101-5.7149-1.3133-.3932-1.711,5.7175c-.3138,1.0485-.4348,1.9137-.3648,2.5948.0697.6815.3512,1.2677.8453,1.7646.4918.4964,1.2025.8821,2.1266,1.1588.9538.2855,1.7764.3308,2.4737.1403.6951-.1913,1.2433-.5471,1.6439-1.0624.3985-.5185.748-1.275,1.0459-2.2706l1.711-5.7174-1.3135-.3932h0ZM84.0407,187.8727l1.7345-8.9552-3.344-.6474.2304-1.1903,8.0343,1.5559-.2308,1.1903-3.3437-.6477-1.7345,8.9552-1.3462-.2608h0ZM90.3767,188.7835l7.6782.6664.1049-1.2078-6.3122-.548.3044-3.5081,5.6795.4929.1049-1.2078-5.6795-.493.2744-3.1632,6.0679.5264.1048-1.2078-7.4338-.6452-.8935,10.2952h0ZM102.3692,184.5366c-.1995-1.7011.1026-3.0878.9049-4.1581.8019-1.0701,1.9258-1.6889,3.3735-1.8587.9484-.1114,1.828.0156,2.643.3776.8127.3625,1.4672.9249,1.9613,1.688.4938.7608.8022,1.6546.9224,2.6793.1219,1.0395.0209,1.9959-.3033,2.8647-.324.8711-.8459,1.5619-1.5659,2.0727-.722.5136-1.5287.8212-2.4199.9258-.9675.1137-1.8576-.0193-2.6742-.3957-.8144-.3768-1.4672-.9442-1.9537-1.7059-.4864-.7591-.7823-1.5891-.8881-2.4897h0ZM103.7769,184.3957c.1449,1.2351.591,2.1685,1.3385,2.8001s1.6229.8898,2.6263.7719c1.0225-.1199,1.819-.5766,2.3967-1.3711.5755-.794.7855-1.8505.6307-3.1692-.0978-.8339-.3242-1.546-.6791-2.1342-.3547-.5879-.8246-1.0219-1.4072-1.3-.5847-.2778-1.214-.3781-1.8901-.299-.9604.1128-1.7484.5397-2.3638,1.2801-.6154.7407-.8328,1.8805-.652,3.4214h0ZM114.7779,188.1156l-2.2014-10.0967,6.8108-1.4851.2582,1.1846-5.4711,1.1931.6857,3.1445,4.7378-1.0329.2583,1.1843-4.7379,1.0332.9992,4.5828-1.3396.2922h0ZM126.6253,185.3212l-3.638-9.6721,6.9837-2.6271.4269,1.1347-5.7004,2.1444,1.1177,2.9719,5.3359-2.007.4269,1.1345-5.3359,2.0072,1.2398,3.2961,5.9301-2.2306.4269,1.1347-7.2136,2.7133h0ZM135.7733,181.8786l1.1786-.5794-3.577-7.2797,8.4432,4.8886,1.2609-.6196-4.5575-9.2744-1.1787.5791,3.577,7.2797-8.4432-4.8884-1.2609.6194,4.5576,9.2747h0ZM147.1294,171.0049l-.6488-1.0239,3.6938-2.3411,2.0497,3.2346c-.2809.8104-.6497,1.5225-1.1089,2.1325s-1.0068,1.1165-1.6407,1.5182c-.8575.5434-1.7515.8538-2.6855.9303-.9306.0771-1.7983-.119-2.5929-.5864-.7979-.4683-1.4686-1.1311-2.0109-1.9866-.5383-.8492-.8637-1.7538-.9754-2.7164-.1105-.961.053-1.8306.4941-2.6084.4397-.7801,1.0945-1.4457,1.9639-1.9968.6298-.3991,1.2653-.6593,1.9054-.7775.6398-.1179,1.2203-.087,1.7393.0938.5225.1814,1.0446.5199,1.567,1.0117l-.862.9451c-.4127-.3592-.7968-.6058-1.1523-.7393-.3557-.1304-.7608-.1585-1.2191-.0816-.4561.0756-.9054.252-1.3462.5315-.5264.3333-.9301.7032-1.2144,1.1083-.2823.4039-.4569.811-.5272,1.2257-.0698.4116-.0698.8158-.0014,1.2112.1221.6829.3815,1.3388.7818,1.9707.4946.7801,1.042,1.3473,1.6415,1.7047.6004.3544,1.2379.4972,1.9088.4281.673-.0706,1.2966-.2863,1.8715-.6509.5-.3166.9258-.7234,1.2787-1.2174.3518-.4967.5814-.9295.6868-1.3071l-1.0363-1.6353-2.5603,1.6223h0ZM154.8241,170.4538l1.0856-.8373-6.3107-8.1831-1.0857.8371,6.3108,8.1833h0ZM157.9476,168.0282l.9552-.9014-5.5664-5.8998,9.51,2.179,1.0219-.964-7.0917-7.5164-.9553.9012,5.5664,5.8997-9.51-2.1787-1.0219.9638,7.0918,7.5166h0ZM165.5923,160.6116l-7.8471-6.724,4.8549-5.6659.9207.7886-3.9629,4.625,2.4112,2.0662,3.7094-4.3294.9204.7889-3.7094,4.3291,2.6742,2.2915,4.1227-4.8115.9207.7888-5.0148,5.8527h0ZM171.7965,153.0134l4.4773-6.2728-.9867-.7044-3.6808,5.157-2.8664-2.046,3.312-4.64-.9867-.7044-3.312,4.64-2.5844-1.8445,3.5385-4.9572-.987-.7045-4.335,6.0733,8.4112,6.0035h0ZM177.2645,144.8618l-9.174-4.7568,2.1081-4.0658c.4241-.8181.8297-1.3963,1.2144-1.7359.3849-.3396.8512-.5287,1.3994-.5669.5483-.0383,1.0749.0751,1.5787.3362.6514.3378,1.0904.8339,1.3186,1.4859.2285.6519.1738,1.4473-.1607,2.3904.3209-.2429.6007-.4065.8368-.4955.5083-.1862,1.0899-.3101,1.7419-.3705l3.3211-.2911-.7861,1.516-2.5381.2231c-.7356.0657-1.3082.14-1.7192.2168-.4122.0791-.7212.1789-.9329.2997-.2084.1193-.3858.263-.5301.4266-.0986.1224-.2299.3387-.3926.6528l-.7285,1.4051,4.0745,2.1124-.6313,1.2175h0ZM172.7705,140.9871l-3.0365-1.5744,1.5035-2.9001c.3509-.6769.7467-1.1004,1.1892-1.2693.4424-.1687.8821-.1387,1.3155.0861.2968.154.5281.3768.6959.6699.1712.2916.2319.6241.1834.9944-.0462.3716-.2123.8331-.5003,1.3881l-1.3507,2.6053h0ZM182.0613,135.1764l.5151-1.2705-9.5766-3.8829-.515,1.2705,9.5765,3.8829h0ZM183.5767,131.527l-9.8042-3.2655.4439-1.3328,9.4088-2.581-7.6955-2.5631.415-1.2461,9.8045,3.2655-.4439,1.3329-9.4091,2.5809,7.6955,2.5631-.415,1.2461h0ZM183.738,115.8801l.5763-2.9755,1.9009.3679c.2021.3359.3597.7999.4794,1.3963.1173.5962.121,1.1849.0085,1.766-.1296.6681-.4003,1.2699-.8107,1.808-.4102.5354-.9514.9011-1.6212,1.0947-.6715.1911-1.4598.2001-2.3666.0244-.7345-.1423-1.3893-.404-1.9701-.7835-.3342-.2214-.6284-.4989-.8802-.832-.2534-.3356-.4294-.7421-.5295-1.2246-.0998-.485-.0918-1.0321.0267-1.6438.0992-.5125.2792-.9603.5371-1.3439.2586-.3861.557-.6616.8961-.8311.341-.1667.7837-.2769,1.3283-.3308l-.0961-1.2756c-.7163.0425-1.3207.1902-1.8111.4456-.4875.2534-.9085.6545-1.2617,1.2013-.3532.5466-.6001,1.1872-.7418,1.9194-.1956,1.0105-.1607,1.9434.1049,2.7986.2633.8547.7838,1.5704,1.5585,2.1493.7772.5794,1.6585.9632,2.6455,1.1542.9942.1928,1.9367.1596,2.8248-.0998.8852-.2571,1.6234-.7537,2.2059-1.4836.5853-.7319.9728-1.5953,1.1659-2.592.1429-.7367.1499-1.4825.0212-2.2354-.1284-.7526-.3934-1.5095-.7903-2.27l-3.7595-.7279-.8314,4.2933,1.1902.2305Z" fill="#1a3168" fill-rule="evenodd" stroke-width="0"/></g></svg>